<svg width="297" height="200" viewBox="0 0 297 200" fill="none" xmlns="http://www.w3.org/2000/svg">
<g opacity="0.5">
<path fill-rule="evenodd" clip-rule="evenodd" d="M270.163 35.4595L272.678 33.0515L273.81 34.3288L271.294 36.7359L270.163 35.4595Z" fill="#0C8944"/>
<path fill-rule="evenodd" clip-rule="evenodd" d="M290.376 25.7352L287.827 15.3618L293.233 14.0261L295.782 24.3986L290.376 25.7352Z" fill="#F8EB33"/>
<path fill-rule="evenodd" clip-rule="evenodd" d="M213.463 7.95595C209.784 3.69259 210.131 -1.74662 212.462 -4.64578C213.002 -3.55112 213.779 -2.76348 214.611 -2.27802C213.303 0.336236 214.147 5.02576 218.692 7.4702C217.072 7.99369 215.286 8.18003 213.463 7.95595Z" fill="#582D7A"/>
<path fill-rule="evenodd" clip-rule="evenodd" d="M225.258 0.81327L223.464 7.04324L219.728 6.25634L221.523 0.0263612L225.258 0.81327Z" fill="#2066A3"/>
<path fill-rule="evenodd" clip-rule="evenodd" d="M191.394 46.3696C189.875 47.1039 189.166 48.6235 189.679 49.9843C189.063 50.1277 188.446 50.272 187.831 50.4155C187.323 48.3349 188.605 46.2304 190.857 45.3919C191.035 45.7178 191.213 46.0445 191.394 46.3696Z" fill="#AF2A30"/>
<path fill-rule="evenodd" clip-rule="evenodd" d="M152.686 33.8824L154.868 33.7198L154.95 34.5725L152.77 34.7332L152.686 33.8824Z" fill="#0C8944"/>
<path opacity="0.3" fill-rule="evenodd" clip-rule="evenodd" d="M171.792 31.0693L163.424 20.7346L167.141 18.0347L175.507 28.3677L171.792 31.0693Z" fill="#F1A944"/>
<path fill-rule="evenodd" clip-rule="evenodd" d="M152.837 -5.64875L153.915 -0.281629L151.021 0.373716L149.943 -4.99166L152.837 -5.64875Z" fill="#AF2A30"/>
<path fill-rule="evenodd" clip-rule="evenodd" d="M239.785 49.0575L241.968 56.8732L237.497 58.092L235.315 50.278L239.785 49.0575Z" fill="#DA236D"/>
<path fill-rule="evenodd" clip-rule="evenodd" d="M74.7202 37.7259C74.943 38.455 75.7877 38.9441 76.7241 38.897C76.7177 39.1741 76.7113 39.4529 76.705 39.73C75.3158 39.6847 74.1924 38.8827 74.0196 37.8295C74.2531 37.7947 74.4877 37.7591 74.7202 37.7259Z" fill="#2066A3"/>
<path fill-rule="evenodd" clip-rule="evenodd" d="M118.499 57.938C118.192 58.0855 118.05 58.3892 118.155 58.6615C118.031 58.6895 117.907 58.7191 117.781 58.7478C117.678 58.3327 117.936 57.9112 118.39 57.7425L118.499 57.938Z" fill="#AF2A30"/>
<path fill-rule="evenodd" clip-rule="evenodd" d="M86.5789 42.0714L80.8912 38.2323L82.8982 35.3865L88.5849 39.2265L86.5789 42.0714Z" fill="#0C8944"/>
<mask id="mask0_1084_76515" style="mask-type:luminance" maskUnits="userSpaceOnUse" x="55" y="-10" width="25" height="41">
<path fill-rule="evenodd" clip-rule="evenodd" d="M78.6658 30.0459L55.4857 30.149L56.6529 -9.66242L79.833 -9.76547L78.6658 30.0459Z" fill="white"/>
</mask>
<g mask="url(#mask0_1084_76515)">
<path fill-rule="evenodd" clip-rule="evenodd" d="M67.6232 26.5828L75.1136 18.7762L79.0242 22.2628L71.5338 30.0695L67.6232 26.5828Z" fill="#F8EB33"/>
</g>
<path fill-rule="evenodd" clip-rule="evenodd" d="M42.3856 7.90271C42.0607 5.40956 43.8698 3.4995 45.781 3.02389C45.6857 3.56144 45.7895 4.04674 46.0083 4.43427C44.6347 5.06517 43.5797 6.99942 44.8429 9.04252C43.9671 8.8263 43.1234 8.44388 42.3856 7.90271Z" fill="#582D7A"/>
<path fill-rule="evenodd" clip-rule="evenodd" d="M147.539 50.3953L148.279 55.9782L145.054 56.4196L144.315 50.8375L147.539 50.3953Z" fill="#DA236D"/>
<mask id="mask1_1084_76515" style="mask-type:luminance" maskUnits="userSpaceOnUse" x="2" y="-10" width="31" height="26">
<path fill-rule="evenodd" clip-rule="evenodd" d="M32.0398 14.9541L2.49893 15.0893L3.24493 -9.66003L32.7858 -9.79523L32.0398 14.9541Z" fill="white"/>
</mask>
<g mask="url(#mask1_1084_76515)">
<path fill-rule="evenodd" clip-rule="evenodd" d="M2.52018 14.1481L4.12772 11.7337L5.42521 12.5301L3.81764 14.9455L2.52018 14.1481Z" fill="#2066A3"/>
</g>
<path fill-rule="evenodd" clip-rule="evenodd" d="M280.046 169.152C281.675 169.147 283.293 169.649 284.676 170.675C284.299 171.278 283.922 171.883 283.545 172.487C282.664 171.973 281.702 171.727 280.75 171.73C279.105 171.734 277.489 172.48 276.374 173.863C275.644 173.129 274.914 172.396 274.185 171.664C274.484 171.363 274.799 171.088 275.126 170.841L275.713 170.651L275.663 170.465C277.011 169.598 278.532 169.156 280.046 169.152Z" fill="#117B3F"/>
<path fill-rule="evenodd" clip-rule="evenodd" d="M273.544 190.186L279.906 190.189L279.838 193.189L273.475 193.185L273.544 190.186Z" fill="#DDD32F"/>
<path fill-rule="evenodd" clip-rule="evenodd" d="M198.57 170.486L203.716 173.494L197.873 183.198L192.725 180.19L198.57 170.486Z" fill="#1B5C96"/>
<path fill-rule="evenodd" clip-rule="evenodd" d="M185.304 130.69L190.33 137.281L184.624 141.252L182.893 142.456L182.708 142.585L177.159 146.447L172.132 139.855L185.304 130.69Z" fill="#1B5C96"/>
<path fill-rule="evenodd" clip-rule="evenodd" d="M140.182 199.842L140.305 203.182L134.119 203.547L133.996 200.207L140.182 199.842Z" fill="#C22061"/>
<path fill-rule="evenodd" clip-rule="evenodd" d="M139.338 160.149C141.185 164.177 145.379 166.634 149.865 166.621C150.719 166.619 151.583 166.527 152.444 166.339C152.753 168.242 153.061 170.147 153.37 172.05C152.652 172.135 151.939 172.177 151.234 172.179C143.948 172.199 137.506 167.926 135.395 161.5C136.71 161.05 138.024 160.598 139.338 160.149Z" fill="#1B5C96"/>
<path opacity="0.3" fill-rule="evenodd" clip-rule="evenodd" d="M256.353 103.352C258.241 103.347 259.959 103.891 261.2 104.829C260.138 105.402 259.375 106.191 258.906 107.018C258.275 106.733 257.522 106.581 256.709 106.584C254.24 106.591 251.221 108.014 249.443 111.414C248.932 109.864 248.747 108.14 248.959 106.361C251.274 104.256 253.951 103.359 256.353 103.352Z" fill="#C22061"/>
<path fill-rule="evenodd" clip-rule="evenodd" d="M167.386 145.815L167.915 146.485L167.089 146.821L166.559 146.15L167.386 145.815Z" fill="#D6993B"/>
<path fill-rule="evenodd" clip-rule="evenodd" d="M292.43 148.49C291.43 146.588 289.092 145.637 286.88 146.192C286.716 145.429 286.552 144.665 286.39 143.901C289.747 143.392 292.951 145.077 294.043 147.885C293.506 148.086 292.969 148.288 292.43 148.49Z" fill="#AF2A30"/>
<path fill-rule="evenodd" clip-rule="evenodd" d="M212.105 105.666C211.956 100.732 215.415 97.205 218.813 96.5039C218.559 97.5495 218.655 98.5149 218.973 99.3023C216.484 100.37 214.329 104.04 216.179 108.208C214.696 107.676 213.295 106.821 212.105 105.666Z" fill="#582D7A"/>
<path fill-rule="evenodd" clip-rule="evenodd" d="M252.006 184.512L254.799 185.831L253.959 187.186L251.165 185.867L252.006 184.512Z" fill="#DA236D"/>
<path fill-rule="evenodd" clip-rule="evenodd" d="M241.222 167.158L244.429 170.625L241.038 173.18L238.989 170.965L239.03 168.81L241.222 167.158Z" fill="#D6993B"/>
<path fill-rule="evenodd" clip-rule="evenodd" d="M129.681 128.532L122.26 129.159L121.999 125.739L129.42 125.113L129.681 128.532Z" fill="#582D7A"/>
<path fill-rule="evenodd" clip-rule="evenodd" d="M167.336 30.3883C168.127 30.3861 168.851 30.7131 169.156 31.2376C169.006 31.2895 168.856 31.3407 168.706 31.3919C168.458 31.0684 167.99 30.8825 167.503 30.8839C167.361 30.8843 167.217 30.9 167.076 30.9338C167.016 30.7642 166.956 30.5939 166.895 30.4236C167.043 30.4002 167.19 30.3887 167.336 30.3883Z" fill="#117B3F"/>
<path opacity="0.3" fill-rule="evenodd" clip-rule="evenodd" d="M153.4 78.7349L157.134 83.1618L147.657 90.4667L143.924 86.0389L153.4 78.7349Z" fill="#117B3F"/>
<path fill-rule="evenodd" clip-rule="evenodd" d="M149.746 59.0775L153.299 60.0551L152.747 61.75L149.194 60.7715L149.746 59.0775Z" fill="#DDD32F"/>
<path fill-rule="evenodd" clip-rule="evenodd" d="M153.377 28.7219L154.561 28.818L154.345 31.726L153.161 31.63L153.377 28.7219Z" fill="#DDD32F"/>
</g>
</svg>
