<svg width="292" height="200" viewBox="0 0 292 200" fill="none" xmlns="http://www.w3.org/2000/svg">
<g opacity="0.5">
<path fill-rule="evenodd" clip-rule="evenodd" d="M21.6805 33.4595L19.1652 31.0515L18.0335 32.3288L20.5488 34.7359L21.6805 33.4595Z" fill="#0C8944"/>
<path fill-rule="evenodd" clip-rule="evenodd" d="M1.46713 23.7352L4.01557 13.3618L-1.3903 12.0261L-3.93967 22.3986L1.46713 23.7352Z" fill="#F8EB33"/>
<path fill-rule="evenodd" clip-rule="evenodd" d="M78.3805 5.95595C82.0594 1.69259 81.7121 -3.74662 79.3814 -6.64578C78.8413 -5.55112 78.0642 -4.76348 77.2324 -4.27802C78.5403 -1.66376 77.6963 3.02576 73.1507 5.4702C74.7709 5.99369 76.5573 6.18003 78.3805 5.95595Z" fill="#582D7A"/>
<path fill-rule="evenodd" clip-rule="evenodd" d="M66.5849 -1.18673L68.3794 5.04324L72.115 4.25634L70.3195 -1.97364L66.5849 -1.18673Z" fill="#2066A3"/>
<path fill-rule="evenodd" clip-rule="evenodd" d="M100.449 44.3696C101.969 45.1039 102.678 46.6235 102.164 47.9843C102.781 48.1277 103.397 48.272 104.012 48.4155C104.52 46.3349 103.238 44.2304 100.986 43.3919C100.808 43.7178 100.63 44.0445 100.449 44.3696Z" fill="#AF2A30"/>
<path fill-rule="evenodd" clip-rule="evenodd" d="M139.156 31.8824L136.975 31.7198L136.893 32.5725L139.073 32.7332L139.156 31.8824Z" fill="#0C8944"/>
<path opacity="0.3" fill-rule="evenodd" clip-rule="evenodd" d="M120.051 29.0693L128.419 18.7346L124.702 16.0347L116.336 26.3677L120.051 29.0693Z" fill="#F1A944"/>
<path fill-rule="evenodd" clip-rule="evenodd" d="M52.0581 47.0575L49.8755 54.8732L54.3459 56.092L56.5285 48.278L52.0581 47.0575Z" fill="#DA236D"/>
<path fill-rule="evenodd" clip-rule="evenodd" d="M217.122 35.7259C216.9 36.455 216.055 36.9441 215.118 36.897C215.125 37.1741 215.131 37.4529 215.138 37.73C216.527 37.6847 217.65 36.8827 217.823 35.8295C217.589 35.7947 217.355 35.7591 217.122 35.7259Z" fill="#2066A3"/>
<path fill-rule="evenodd" clip-rule="evenodd" d="M173.344 55.938C173.651 56.0855 173.793 56.3892 173.688 56.6615C173.812 56.6895 173.936 56.7191 174.062 56.7478C174.165 56.3327 173.907 55.9112 173.453 55.7425L173.344 55.938Z" fill="#AF2A30"/>
<path fill-rule="evenodd" clip-rule="evenodd" d="M205.264 40.0714L210.952 36.2323L208.945 33.3865L203.258 37.2265L205.264 40.0714Z" fill="#0C8944"/>
<mask id="mask0_1084_76460" style="mask-type:luminance" maskUnits="userSpaceOnUse" x="212" y="-12" width="25" height="41">
<path fill-rule="evenodd" clip-rule="evenodd" d="M213.177 28.0459L236.357 28.149L235.19 -11.6624L212.01 -11.7655L213.177 28.0459Z" fill="white"/>
</mask>
<g mask="url(#mask0_1084_76460)">
<path fill-rule="evenodd" clip-rule="evenodd" d="M224.22 24.5828L216.729 16.7762L212.819 20.2628L220.309 28.0695L224.22 24.5828Z" fill="#F8EB33"/>
</g>
<path fill-rule="evenodd" clip-rule="evenodd" d="M249.457 5.90271C249.782 3.40956 247.973 1.4995 246.062 1.02389C246.157 1.56144 246.054 2.04674 245.835 2.43427C247.208 3.06517 248.263 4.99942 247 7.04252C247.876 6.8263 248.72 6.44388 249.457 5.90271Z" fill="#582D7A"/>
<path fill-rule="evenodd" clip-rule="evenodd" d="M144.304 48.3953L143.564 53.9782L146.789 54.4196L147.528 48.8375L144.304 48.3953Z" fill="#DA236D"/>
<mask id="mask1_1084_76460" style="mask-type:luminance" maskUnits="userSpaceOnUse" x="259" y="-12" width="31" height="26">
<path fill-rule="evenodd" clip-rule="evenodd" d="M259.803 12.9541L289.344 13.0893L288.598 -11.66L259.057 -11.7952L259.803 12.9541Z" fill="white"/>
</mask>
<g mask="url(#mask1_1084_76460)">
<path fill-rule="evenodd" clip-rule="evenodd" d="M289.323 12.1481L287.715 9.73367L286.418 10.5301L288.025 12.9455L289.323 12.1481Z" fill="#2066A3"/>
</g>
<path fill-rule="evenodd" clip-rule="evenodd" d="M11.7968 167.152C10.1679 167.147 8.54978 167.649 7.16687 168.675C7.54355 169.278 7.92117 169.883 8.29789 170.487C9.17856 169.973 10.1407 169.727 11.0932 169.73C12.7382 169.734 14.3536 170.48 15.4692 171.863C16.1994 171.129 16.9288 170.396 17.6581 169.664C17.359 169.363 17.0443 169.088 16.7175 168.841L16.13 168.651L16.1802 168.465C14.8324 167.598 13.3108 167.156 11.7968 167.152Z" fill="#117B3F"/>
<path fill-rule="evenodd" clip-rule="evenodd" d="M18.2987 188.186L11.9371 188.189L12.0055 191.189L18.368 191.185L18.2987 188.186Z" fill="#DDD32F"/>
<path fill-rule="evenodd" clip-rule="evenodd" d="M29.2891 198.169L24.438 200.778L32.9228 214.9L37.773 212.291L29.2891 198.169Z" fill="#D6993B"/>
<path fill-rule="evenodd" clip-rule="evenodd" d="M93.2732 168.486L88.1269 171.494L93.9704 181.198L99.1176 178.19L93.2732 168.486Z" fill="#1B5C96"/>
<path fill-rule="evenodd" clip-rule="evenodd" d="M106.539 128.69L101.513 135.281L107.219 139.252L108.95 140.456L109.135 140.585L114.684 144.447L119.711 137.855L106.539 128.69Z" fill="#1B5C96"/>
<path fill-rule="evenodd" clip-rule="evenodd" d="M151.661 197.842L151.538 201.182L157.725 201.547L157.848 198.207L151.661 197.842Z" fill="#C22061"/>
<path fill-rule="evenodd" clip-rule="evenodd" d="M152.504 158.149C150.657 162.177 146.464 164.634 141.978 164.621C141.124 164.619 140.26 164.527 139.399 164.339C139.09 166.242 138.782 168.147 138.473 170.05C139.19 170.135 139.904 170.177 140.608 170.179C147.895 170.199 154.336 165.926 156.448 159.5C155.133 159.05 153.818 158.598 152.504 158.149Z" fill="#1B5C96"/>
<path opacity="0.3" fill-rule="evenodd" clip-rule="evenodd" d="M35.4897 101.352C33.6017 101.347 31.884 101.891 30.643 102.829C31.7046 103.402 32.4678 104.191 32.9371 105.018C33.5673 104.733 34.3211 104.581 35.134 104.584C37.6033 104.591 40.6217 106.014 42.4 109.414C42.911 107.864 43.096 106.14 42.8835 104.361C40.5683 102.256 37.8915 101.359 35.4897 101.352Z" fill="#C22061"/>
<path fill-rule="evenodd" clip-rule="evenodd" d="M124.457 143.815L123.928 144.485L124.754 144.821L125.284 144.15L124.457 143.815Z" fill="#D6993B"/>
<path fill-rule="evenodd" clip-rule="evenodd" d="M-0.58736 146.49C0.412985 144.588 2.75071 143.637 4.96326 144.192C5.12679 143.429 5.29031 142.665 5.45285 141.901C2.09574 141.392 -1.1087 143.077 -2.19986 145.885C-1.66301 146.086 -1.12615 146.288 -0.58736 146.49Z" fill="#AF2A30"/>
<path fill-rule="evenodd" clip-rule="evenodd" d="M79.7379 103.666C79.8876 98.7317 76.4285 95.205 73.0299 94.5039C73.2847 95.5495 73.1881 96.5149 72.8701 97.3023C75.3591 98.3704 77.5142 102.04 75.6642 106.208C77.1469 105.676 78.5486 104.821 79.7379 103.666Z" fill="#582D7A"/>
<path fill-rule="evenodd" clip-rule="evenodd" d="M39.8368 182.512L37.0434 183.831L37.8834 185.186L40.6777 183.867L39.8368 182.512Z" fill="#DA236D"/>
<path fill-rule="evenodd" clip-rule="evenodd" d="M50.6212 165.158L47.4143 168.625L50.805 171.18L52.8544 168.965L52.8129 166.81L50.6212 165.158Z" fill="#D6993B"/>
<path fill-rule="evenodd" clip-rule="evenodd" d="M162.162 126.532L169.583 127.159L169.844 123.739L162.423 123.113L162.162 126.532Z" fill="#582D7A"/>
<path fill-rule="evenodd" clip-rule="evenodd" d="M124.507 28.3883C123.716 28.3861 122.992 28.7131 122.687 29.2376C122.837 29.2895 122.987 29.3407 123.137 29.3919C123.386 29.0684 123.853 28.8825 124.34 28.8839C124.482 28.8843 124.626 28.9 124.767 28.9338C124.827 28.7642 124.887 28.5939 124.948 28.4236C124.8 28.4002 124.653 28.3887 124.507 28.3883Z" fill="#117B3F"/>
<path opacity="0.3" fill-rule="evenodd" clip-rule="evenodd" d="M138.443 76.7349L134.709 81.1618L144.186 88.4667L147.919 84.0389L138.443 76.7349Z" fill="#117B3F"/>
<path fill-rule="evenodd" clip-rule="evenodd" d="M142.096 57.0775L138.544 58.0551L139.096 59.75L142.648 58.7715L142.096 57.0775Z" fill="#DDD32F"/>
<path fill-rule="evenodd" clip-rule="evenodd" d="M138.466 26.7219L137.282 26.818L137.498 29.726L138.682 29.63L138.466 26.7219Z" fill="#DDD32F"/>
</g>
</svg>
